# xmcd
#
# Track frame offsets:
#	150
#	19581
#	49920
#	68526
#	92687
#	109187
#	138847
#	153817
#	178888
#	203816
#	224818
#
# Disc length: 3399 seconds
#
# Revision: 2
# Processed by: cddbd v1.5.2PL0 Copyright (c) Steve Scherf et al.
# Submitted via: audiograbber 1.83.01
#
DISCID=970d450b
DTITLE=Red Rhythm Band - Gotta Have Your Love
DYEAR=2003
DGENRE=Blues
TTITLE0=I Don't Go That Way
TTITLE1=Best Be Leavin'
TTITLE2=Gotta Have Your Love
TTITLE3=Suspicion
TTITLE4=Just Take My Medicine
TTITLE5=Triumph
TTITLE6=Heartbreaker
TTITLE7=Still The One
TTITLE8=Rumors
TTITLE9=Cruzin For A Bruzin
TTITLE10=Gotta Be The Rhythm
EXTD=R.H.O.M. Records\n405-643-5322
EXTT0=
EXTT1=
EXTT2=
EXTT3=
EXTT4=
EXTT5=
EXTT6=
EXTT7=
EXTT8=
EXTT9=
EXTT10=
PLAYORDER=
